<?xml version="1.0" ?><svg viewBox="0 0 64 64" xmlns="http://www.w3.org/2000/svg"><title/><g data-name="Outline asal" id="Outline_asal"><path d="M36,47H20a1,1,0,0,1-1-1V24a1,1,0,0,1,1-1h7.875A10.0517,10.0517,0,0,1,32,23.8906,10.0517,10.0517,0,0,1,36.125,23H44a1,1,0,0,1,1,1V38A9.01,9.01,0,0,1,36,47ZM21,45H36a7.0085,7.0085,0,0,0,7-7V25H36.125a8.0416,8.0416,0,0,0-3.5781.8447l-.1.05a1.0008,1.0008,0,0,1-.8946,0l-.1-.05A8.0416,8.0416,0,0,0,27.875,25H21Z"/><path d="M27.5,38A5.5,5.5,0,1,1,33,32.5,5.5069,5.5069,0,0,1,27.5,38Zm0-9A3.5,3.5,0,1,0,31,32.5,3.5042,3.5042,0,0,0,27.5,29Z"/><path d="M36.5,38A5.5,5.5,0,1,1,42,32.5,5.5069,5.5069,0,0,1,36.5,38Zm0-9A3.5,3.5,0,1,0,40,32.5,3.5042,3.5042,0,0,0,36.5,29Z"/><circle cx="36" cy="32.5" r="1"/><path d="M36,34.5a2,2,0,1,1,2-2A2.0027,2.0027,0,0,1,36,34.5Zm0-2.002v0Z"/><circle cx="28" cy="32.5" r="1"/><path d="M28,34.5a2,2,0,1,1,2-2A2.0027,2.0027,0,0,1,28,34.5Zm0-2.002v0Z"/><path d="M32,41a.9967.9967,0,0,1-.707-.293l-2-2A.9993.9993,0,0,1,29,38a3,3,0,0,1,6,0,.9993.9993,0,0,1-.293.707l-2,2A.9967.9967,0,0,1,32,41Zm-.9365-3.3506L32,38.5859l.9365-.9365a1,1,0,0,0-1.873,0Z"/><path d="M38,24H36V23a4,4,0,0,0-8,0v1H26V23a6,6,0,0,1,12,0Z"/><path d="M49,54H15a5.0059,5.0059,0,0,1-5-5V15a5.0059,5.0059,0,0,1,5-5H49a5.0059,5.0059,0,0,1,5,5V49A5.0059,5.0059,0,0,1,49,54ZM15,12a3.0033,3.0033,0,0,0-3,3V49a3.0033,3.0033,0,0,0,3,3H49a3.0033,3.0033,0,0,0,3-3V15a3.0033,3.0033,0,0,0-3-3Z"/></g></svg>